<?xml version="1.0" standalone="no"?>
<!DOCTYPE svg PUBLIC "-//W3C//DTD SVG 20010904//EN"
 "http://www.w3.org/TR/2001/REC-SVG-20010904/DTD/svg10.dtd">
<svg version="1.0" xmlns="http://www.w3.org/2000/svg"
 width="800.000000pt" height="1456.000000pt" viewBox="0 0 800.000000 1456.000000"
 preserveAspectRatio="xMidYMid meet">
<metadata>
Created by potrace 1.10, written by Peter Selinger 2001-2011
</metadata>
<g transform="translate(0.000000,1456.000000) scale(0.100000,-0.100000)"
fill="#000000" stroke="none">
<path d="M7972 12673 c2 -1498 6 -1887 16 -1891 9 -3 12 379 12 1887 0 1676
-2 1891 -15 1891 -13 0 -15 -214 -13 -1887z"/>
<path d="M3234 13825 c-18 -16 -50 -47 -73 -67 -37 -34 -41 -43 -42 -85 l-1
-48 -99 -50 c-81 -40 -104 -57 -130 -95 -18 -25 -42 -56 -55 -70 -12 -14 -26
-41 -31 -60 -6 -23 -19 -40 -38 -50 -16 -8 -46 -32 -68 -53 l-39 -37 4 -108
c3 -101 1 -109 -22 -140 -28 -38 -29 -67 -3 -179 15 -70 15 -73 -6 -123 -12
-28 -24 -79 -28 -114 -5 -59 -3 -68 31 -132 31 -59 36 -78 36 -135 0 -108 27
-235 76 -358 51 -129 114 -227 203 -320 l61 -64 -37 -42 c-26 -29 -51 -47 -78
-54 -22 -6 -81 -24 -131 -41 -62 -21 -111 -30 -155 -30 -442 -3 -820 -230
-1136 -685 -50 -71 -109 -166 -131 -210 -35 -70 -48 -86 -106 -128 -37 -26
-71 -45 -75 -43 -5 3 -14 34 -20 68 -21 110 -30 133 -71 188 -22 29 -40 64
-40 77 0 13 -5 43 -11 66 -13 54 -62 84 -127 79 -56 -4 -117 -61 -128 -119
-11 -60 -49 -108 -102 -131 -55 -24 -84 -53 -105 -104 -12 -27 -23 -38 -47
-43 -60 -13 -97 -120 -68 -194 8 -21 41 -72 73 -114 92 -122 92 -156 1 -330
-45 -85 -57 -121 -74 -213 -20 -103 -20 -117 -7 -204 22 -146 66 -198 178
-209 67 -7 194 9 242 30 82 36 353 254 613 492 107 99 174 153 177 145 54
-152 137 -410 149 -465 10 -46 16 -121 16 -209 0 -199 -28 -293 -109 -366 -36
-32 -41 -42 -41 -79 0 -71 67 -135 175 -169 43 -14 332 -205 403 -267 l43 -38
30 -395 c26 -356 34 -422 78 -665 53 -290 177 -827 235 -1015 20 -63 36 -124
36 -135 0 -11 -20 -50 -44 -86 -200 -299 -499 -840 -564 -1023 -47 -132 -49
-157 -26 -311 12 -80 26 -129 60 -208 37 -83 53 -139 85 -302 38 -193 79 -487
79 -570 0 -22 -9 -68 -20 -103 -13 -41 -22 -107 -26 -195 -6 -116 -3 -160 25
-367 22 -160 46 -289 77 -405 49 -192 79 -427 68 -542 -13 -148 -71 -298 -155
-404 -16 -21 -40 -69 -53 -106 -50 -145 -67 -172 -197 -300 -118 -117 -128
-123 -206 -152 -128 -47 -157 -65 -210 -133 -71 -92 -92 -133 -99 -193 -6 -50
-5 -56 27 -94 74 -91 244 -158 674 -267 199 -51 227 -56 290 -50 59 6 73 11
90 33 20 25 28 26 186 39 90 8 174 18 186 23 26 12 47 99 63 275 15 152 6 294
-30 471 -35 170 -62 412 -62 560 -1 131 45 407 92 555 36 114 113 444 181 779
55 276 59 341 34 571 -13 124 -23 160 -115 445 -113 346 -124 401 -103 483 12
45 31 74 110 166 53 61 99 111 102 111 4 0 78 -83 166 -185 87 -102 179 -207
203 -235 43 -48 184 -256 231 -340 26 -47 72 -79 150 -106 43 -15 105 -22 271
-30 174 -8 265 -18 480 -54 257 -44 272 -47 510 -130 240 -84 246 -87 298
-138 28 -28 52 -57 52 -64 0 -44 25 -113 53 -146 27 -32 45 -41 107 -57 106
-28 134 -26 180 11 37 30 40 31 63 16 71 -46 159 -133 193 -190 75 -124 211
-290 278 -339 80 -57 171 -29 266 83 23 28 53 73 66 100 66 136 52 420 -30
603 -34 75 -138 196 -267 311 -97 87 -129 130 -129 176 0 12 14 63 31 113 30
86 31 93 20 156 -26 142 -115 304 -228 411 -72 69 -185 82 -319 37 -60 -20
-62 -22 -93 -87 -18 -36 -61 -118 -95 -181 -35 -63 -71 -136 -81 -162 -10 -27
-21 -48 -25 -48 -21 0 -123 42 -161 66 -24 15 -96 77 -159 139 -63 61 -138
130 -166 153 -62 50 -166 96 -265 117 -71 15 -300 22 -329 11 -11 -5 -23 6
-40 34 -14 23 -30 47 -35 53 -30 35 -89 193 -124 333 -37 151 -71 400 -71 525
0 92 37 148 194 300 162 156 209 221 260 359 69 189 78 242 79 475 0 192 -3
226 -32 395 -22 131 -42 210 -66 272 -45 113 -53 194 -27 268 19 55 19 55 83
76 35 12 63 25 63 30 -1 5 -30 99 -64 209 -34 110 -75 256 -92 325 -29 120
-30 131 -25 286 6 148 10 178 57 375 l51 214 14 320 c13 315 14 322 44 410 26
74 43 103 96 167 63 75 66 77 122 85 32 4 104 7 160 6 l103 -1 91 -67 c50 -37
105 -73 122 -80 85 -35 269 -95 324 -105 82 -16 111 -44 164 -160 66 -144 124
-217 338 -430 182 -180 210 -213 371 -435 164 -226 265 -376 305 -454 14 -28
17 -66 19 -230 3 -192 3 -197 30 -250 16 -30 46 -109 68 -175 22 -67 53 -142
69 -167 23 -37 29 -57 29 -102 0 -44 5 -62 23 -82 19 -23 26 -25 49 -16 33 12
44 32 53 92 8 51 -4 105 -41 197 -25 59 -25 63 -10 87 33 50 98 24 183 -72 53
-59 66 -83 88 -152 l27 -83 -38 -57 c-20 -31 -46 -66 -57 -78 -17 -19 -19 -27
-9 -48 8 -17 20 -25 37 -25 38 0 126 87 195 191 l57 86 6 179 c4 142 3 185 -9
213 -18 42 -147 186 -209 232 -121 90 -377 544 -577 1024 -166 399 -424 830
-584 974 -32 29 -142 109 -244 177 -239 159 -607 477 -675 584 -82 128 -163
174 -418 239 -179 46 -257 80 -373 162 -103 74 -185 108 -280 118 -58 7 -80
15 -129 47 -32 21 -67 51 -78 66 l-20 27 26 30 c14 17 28 48 32 70 5 32 12 42
35 50 26 9 32 6 59 -25 41 -46 78 -46 148 3 l53 36 -20 22 c-17 19 -19 32 -16
144 3 102 7 126 21 133 25 15 63 -16 71 -57 7 -41 6 -40 42 -18 65 40 80 62
75 106 -12 100 -32 160 -62 191 -22 22 -31 42 -31 64 0 28 5 35 34 47 19 8 44
28 56 45 19 27 27 30 73 30 29 0 82 3 119 6 l67 7 -43 27 c-67 43 -75 88 -24
145 l31 36 -17 36 c-20 42 -13 55 44 72 22 6 40 16 40 21 0 4 -18 23 -40 40
-23 18 -49 49 -60 69 -10 21 -26 43 -34 50 -38 32 1 93 64 103 24 3 24 4 -10
22 -57 30 -68 45 -75 101 l-7 53 -34 -14 c-20 -8 -68 -14 -122 -14 -73 0 -92
3 -105 18 -44 49 1 86 91 76 26 -3 60 -1 77 6 30 11 30 12 8 23 -12 7 -40 37
-63 66 l-40 55 32 26 c61 51 11 75 -138 63 -70 -5 -86 -3 -130 17 -88 41 -117
48 -142 39 -27 -11 -76 11 -86 38 -8 20 28 52 60 53 11 0 60 -13 109 -30 88
-30 141 -36 180 -21 16 7 14 9 -16 15 -20 3 -58 18 -85 32 -27 13 -101 36
-165 49 -144 30 -202 24 -303 -31 -75 -40 -61 -40 -281 -15 -39 4 -81 4 -95
-1 -21 -8 -28 -5 -46 18 -12 15 -26 41 -31 58 l-10 31 -14 -31 c-18 -40 -95
-108 -113 -101 -11 4 -16 25 -18 69 l-3 63 -31 -30z"/>
<path d="M7968 3168 l-3 -3133 -2339 -5 c-1859 -4 -2340 -8 -2344 -17 -3 -10
473 -13 2357 -13 l2361 0 0 3150 c0 2792 -2 3150 -15 3150 -13 0 -15 -357 -17
-3132z"/>
<path d="M0 15 c0 -13 87 -15 721 -15 640 0 720 2 709 15 -11 13 -103 15 -721
15 -624 0 -709 -2 -709 -15z"/>
</g>
</svg>
